<svg version="1.2" baseProfile="tiny-ps" xmlns="http://www.w3.org/2000/svg" viewBox="0 0 505 190" width="505" height="190">
	<title>Shape copy</title>
	<style>
		tspan { white-space:pre }
		.shp0 { fill: #b71f25 } 
	</style>
	<path id="Shape copy" class="shp0" d="M-71.92 -55.81C-84.91 -46.42 -93.44 -31.61 -97 -13.3L-95.16 -9.06C-68 -24.17 -11.29 -7.05 20.53 8.85C40.35 18.76 53.83 38.3 72.76 50C96.82 64.87 125.8 64.83 151.54 61.24C177.29 57.65 202.52 56.38 229.71 55.07C297.74 51.79 405.59 148.92 415.68 189.99C415.68 189.99 508.55 175.34 504.91 117.77C500.33 45.42 399.02 -73.25 399.02 -73.25C345.43 -104.08 278.82 -107.53 231.34 -81.93C224.35 -78.16 217.8 -73.85 211.47 -69.27C205.51 -64.96 199.75 -60.42 193.98 -55.89C188.21 -51.35 182.44 -46.81 176.48 -42.5C174.89 -41.35 173.28 -40.21 171.66 -39.1C151.41 -25.21 126.89 -14.33 99.77 -17.48C55.41 -22.65 16.15 -63.47 -28.11 -66.75C-45.88 -68.07 -60.59 -64 -71.92 -55.81" />
</svg>